mtllib test1.mtl
# generated useing tonganoxie
v 0.00000 -2.70202 0.00000
v 0.00000 -2.47448 0.48338
v 0.00000 -2.24694 0.96677
v 0.00000 -2.01940 1.45015
v 0.00000 -1.80135 0.00000
v 0.00000 -1.64965 0.48338
v 0.00000 -1.49796 0.96677
v 0.00000 -1.34627 1.45015
v 0.00000 -0.90067 0.00000
v 0.00000 -0.82483 0.48338
v 0.00000 -0.74898 0.96677
v 0.00000 -0.67313 1.45015
v 0.00000 -0.00000 0.00000
v 0.00000 -0.00000 0.48338
v 0.00000 -0.00000 0.96677
v 0.00000 -0.00000 1.45015
v 0.00000 -0.00000 0.00000
v 0.00000 -0.00000 0.48338
v 0.00000 -0.00000 0.96677
v 0.00000 -0.00000 1.45015
v 0.00000 0.96270 0.00000
v 0.00000 0.91798 0.54545
v 0.00000 0.87905 1.02690
v 0.00000 0.84485 1.45500
v 0.00000 1.85686 0.00000
v 0.00000 1.81611 0.52903
v 0.00000 1.77888 1.01212
v 0.00000 1.74474 1.45500
v 0.00000 2.68956 0.00000
v 0.00000 2.69501 0.47921
v 0.00000 2.70022 0.96417
v 0.00000 2.70521 1.45500
v 0.00000 -0.00000 0.00000
v 0.00000 0.96270 0.00000
v 0.00000 1.85686 0.00000
v 0.00000 2.68956 0.00000
v 0.33259 0.00000 0.00000
v 0.33300 0.90197 0.00000
v 0.33382 1.80439 0.00000
v 0.33621 2.70725 0.00000
v 0.66592 0.00000 0.00000
v 0.66634 0.90128 0.00000
v 0.66716 1.80234 0.00000
v 0.66953 2.70317 0.00000
v 1.00000 0.00000 0.00000
v 1.00000 0.90059 0.00000
v 1.00000 1.80029 0.00000
v 1.00000 2.69909 0.00000
v 0.00000 2.68956 0.00000
v 0.00000 2.69501 0.47921
v 0.00000 2.70022 0.96417
v 0.00000 2.70521 1.45500
v 0.33621 2.70725 0.00000
v 0.32945 2.70521 0.48396
v 0.33721 2.70521 0.96784
v 0.34503 2.70521 1.45166
v 0.66953 2.70317 0.00000
v 0.65890 2.70521 0.48622
v 0.67444 2.70521 0.97233
v 0.69009 2.70521 1.45833
v 1.00000 2.69909 0.00000
v 0.98835 2.70521 0.48848
v 1.01169 2.70521 0.97680
v 1.03518 2.70521 1.46496
v 0.00000 -0.00000 1.45015
v 0.00000 0.84485 1.45500
v 0.00000 1.74474 1.45500
v 0.00000 2.70521 1.45500
v 0.33629 0.00000 1.45500
v 0.33666 0.90497 1.45500
v 0.33741 1.80799 1.45500
v 0.34503 2.70521 1.45166
v 0.66961 0.00000 1.45500
v 0.66997 0.89972 1.45500
v 0.67072 1.80017 1.45500
v 0.69009 2.70521 1.45833
v 1.00000 0.00000 1.45500
v 1.00000 0.89452 1.45500
v 1.00000 1.79239 1.45500
v 1.03518 2.70521 1.46496
v 1.00000 2.69909 0.00000
v 0.98835 2.70521 0.48848
v 1.01169 2.70521 0.97680
v 1.03518 2.70521 1.46496
v 1.00000 1.80029 0.00000
v 1.00000 1.88623 0.54448
v 1.00000 1.81378 1.02605
v 1.00000 1.79239 1.45500
v 1.00000 0.90059 0.00000
v 1.00000 0.95261 0.54672
v 1.00000 0.89658 1.02803
v 1.00000 0.89452 1.45500
v 1.00000 0.00000 0.00000
v 1.00000 0.00000 0.54783
v 1.00000 0.00000 1.02901
v 1.00000 0.00000 1.45500
v 1.00000 0.00000 0.00000
v 1.00000 0.00000 0.54783
v 1.00000 0.00000 1.02901
v 1.00000 0.00000 1.45500
v 1.00000 -0.96975 0.00914
v 1.00000 -0.92441 0.49109
v 1.00000 -0.87907 0.97305
v 1.00000 -0.83373 1.45500
v 1.00000 -1.93950 0.00914
v 1.00000 -1.84882 0.49109
v 1.00000 -1.75814 0.97305
v 1.00000 -1.66746 1.45500
v 1.00000 -2.90925 0.00914
v 1.00000 -2.77322 0.49109
v 1.00000 -2.63720 0.97305
v 1.00000 -2.50118 1.45500
vt 0.00000 0.00463
vt 0.00000 0.33422
vt 0.00000 0.66380
vt 0.00000 0.99339
vt 0.07854 0.00463
vt 0.07192 0.33422
vt 0.06531 0.66380
vt 0.05870 0.99339
vt 0.15708 0.00463
vt 0.14385 0.33422
vt 0.13062 0.66380
vt 0.11739 0.99339
vt 0.23562 0.00463
vt 0.21577 0.33422
vt 0.19593 0.66380
vt 0.17609 0.99339
vt 0.23562 0.00463
vt 0.21577 0.33422
vt 0.19593 0.66380
vt 0.17609 0.99339
vt 0.29927 0.12698
vt 0.28618 0.37316
vt 0.27309 0.61934
vt 0.26000 0.86552
vt 0.36293 0.24934
vt 0.35659 0.41211
vt 0.35025 0.57488
vt 0.34392 0.73765
vt 0.42659 0.37169
vt 0.42700 0.45106
vt 0.42741 0.53042
vt 0.42783 0.60979
vt 0.23562 0.00463
vt 0.29927 0.12698
vt 0.36293 0.24934
vt 0.42659 0.37169
vt 0.39021 0.00518
vt 0.41570 0.12717
vt 0.44119 0.24915
vt 0.46668 0.37114
vt 0.54481 0.00573
vt 0.53213 0.12735
vt 0.51946 0.24897
vt 0.50678 0.37059
vt 0.69940 0.00628
vt 0.64856 0.12754
vt 0.59772 0.24879
vt 0.54688 0.37004
vt 0.42659 0.37169
vt 0.42700 0.45106
vt 0.42741 0.53042
vt 0.42783 0.60979
vt 0.46668 0.37114
vt 0.46792 0.45106
vt 0.46916 0.53097
vt 0.47040 0.61089
vt 0.50678 0.37059
vt 0.50885 0.45106
vt 0.51091 0.53153
vt 0.51298 0.61199
vt 0.54688 0.37004
vt 0.54977 0.45106
vt 0.55266 0.53208
vt 0.55556 0.61310
vt 0.17609 0.99339
vt 0.26000 0.86552
vt 0.34392 0.73765
vt 0.42783 0.60979
vt 0.36458 0.99559
vt 0.39986 0.86736
vt 0.43513 0.73912
vt 0.47040 0.61089
vt 0.55308 0.99780
vt 0.53971 0.86919
vt 0.52634 0.74059
vt 0.51298 0.61199
vt 0.74157 1.00000
vt 0.67956 0.87103
vt 0.61756 0.74206
vt 0.55556 0.61310
vt 0.54688 0.37004
vt 0.54977 0.45106
vt 0.55266 0.53208
vt 0.55556 0.61310
vt 0.59772 0.24879
vt 0.60433 0.41321
vt 0.61095 0.57764
vt 0.61756 0.74206
vt 0.64856 0.12754
vt 0.65890 0.37537
vt 0.66923 0.62320
vt 0.67956 0.87103
vt 0.69940 0.00628
vt 0.71346 0.33752
vt 0.72751 0.66876
vt 0.74157 1.00000
vt 0.69940 0.00628
vt 0.71346 0.33752
vt 0.72751 0.66876
vt 0.74157 1.00000
vt 0.79960 0.00628
vt 0.80897 0.33752
vt 0.81834 0.66876
vt 0.82771 1.00000
vt 0.89980 0.00628
vt 0.90449 0.33752
vt 0.90917 0.66876
vt 0.91386 1.00000
vt 1.00000 0.00628
vt 1.00000 0.33752
vt 1.00000 0.66876
vt 1.00000 1.00000
vn 1.00000 0.00000 0.00000
vn 1.00000 0.00000 0.00000
vn 1.00000 0.00000 0.00000
vn 1.00000 0.00000 0.00000
vn 1.00000 0.00000 -0.00000
vn 1.00000 0.00000 0.00000
vn 1.00000 0.00000 0.00000
vn 1.00000 0.00000 0.00000
vn 1.00000 0.00000 0.00000
vn 1.00000 0.00000 0.00000
vn 1.00000 0.00000 0.00000
vn 1.00000 0.00000 0.00000
vn 1.00000 0.00000 0.00000
vn 1.00000 0.00000 0.00000
vn 1.00000 0.00000 0.00000
vn 1.00000 0.00000 0.00000
vn 1.00000 0.00000 0.00000
vn 1.00000 0.00000 0.00000
vn 1.00000 0.00000 -0.00000
vn 1.00000 0.00000 0.00000
vn 1.00000 0.00000 -0.00000
vn 1.00000 0.00000 0.00000
vn 1.00000 0.00000 0.00000
vn 1.00000 0.00000 0.00000
vn 1.00000 0.00000 -0.00000
vn 1.00000 0.00000 0.00000
vn 1.00000 -0.00000 -0.00000
vn 1.00000 0.00000 0.00000
vn 1.00000 -0.00000 0.00000
vn 1.00000 0.00000 0.00000
vn 1.00000 0.00000 -0.00000
vn 1.00000 0.00000 0.00000
vn 1.00000 -0.00000 -0.00000
vn 1.00000 0.00000 0.00000
vn 1.00000 -0.00000 0.00000
vn 1.00000 0.00000 0.00000
vn 0.00000 0.00000 1.00000
vn 0.00000 0.00000 1.00000
vn -0.00000 0.00000 1.00000
vn 0.00000 0.00000 1.00000
vn 0.00000 0.00000 1.00000
vn 0.00000 0.00000 1.00000
vn -0.00000 0.00000 1.00000
vn 0.00000 0.00000 1.00000
vn -0.00000 0.00000 1.00000
vn 0.00000 0.00000 1.00000
vn -0.00000 0.00000 1.00000
vn 0.00000 0.00000 1.00000
vn -0.00000 0.00000 1.00000
vn 0.00000 -0.00000 1.00000
vn -0.00000 0.00000 1.00000
vn 0.00000 0.00000 1.00000
vn -0.00000 0.00000 1.00000
vn 0.00000 0.00000 1.00000
vn 0.05255 -0.99861 -0.00348
vn 0.03080 -0.99946 0.01136
vn -0.01224 -0.99992 0.00393
vn 0.00003 -0.99999 -0.00422
vn -0.01236 -0.99985 0.01224
vn -0.00003 -0.99999 0.00420
vn 0.03098 -0.99952 -0.00050
vn 0.01469 -0.99983 0.01075
vn 0.00000 -1.00000 0.00000
vn 0.00000 -1.00000 0.00000
vn 0.00000 -1.00000 0.00000
vn 0.00000 -1.00000 0.00000
vn 0.01481 -0.99989 -0.00024
vn 0.00010 -0.99995 0.01018
vn 0.00000 -1.00000 0.00000
vn 0.00000 -1.00000 0.00000
vn 0.00000 -1.00000 0.00000
vn 0.00000 -1.00000 0.00000
vn -0.01442 0.00001 0.99990
vn 0.00103 -0.00574 0.99998
vn -0.00000 0.00000 1.00000
vn 0.00000 0.00000 1.00000
vn -0.00000 0.00000 1.00000
vn 0.00000 0.00000 1.00000
vn 0.00000 0.00000 1.00000
vn 0.00000 0.00000 1.00000
vn -0.00000 0.00000 1.00000
vn 0.00000 0.00000 1.00000
vn -0.00000 0.00000 1.00000
vn 0.00000 0.00000 1.00000
vn -0.00070 0.00372 0.99999
vn 0.00967 0.00000 0.99995
vn -0.00009 -0.00368 0.99999
vn -0.01931 0.00388 0.99981
vn -0.00026 -0.01090 0.99994
vn -0.01922 -0.00327 0.99981
vn -1.00000 0.00000 0.00000
vn -0.99960 -0.01583 -0.02364
vn -1.00000 0.00000 0.00000
vn -1.00000 0.00000 -0.00000
vn -1.00000 0.00000 0.00000
vn -1.00000 0.00000 -0.00000
vn -0.99989 -0.01437 -0.00216
vn -0.99874 0.01573 0.04772
vn -1.00000 0.00000 0.00000
vn -1.00000 0.00000 0.00000
vn -1.00000 0.00000 0.00000
vn -1.00000 0.00000 0.00000
vn -0.99991 0.01315 0.00066
vn -0.99812 0.03794 0.04804
vn -1.00000 0.00000 0.00000
vn -1.00000 0.00000 0.00000
vn -1.00000 0.00000 0.00000
vn -1.00000 0.00000 0.00000
vn -1.00000 0.00000 0.00000
vn -1.00000 0.00000 0.00000
vn -1.00000 0.00000 0.00000
vn -1.00000 0.00000 -0.00000
vn -1.00000 0.00000 0.00000
vn -1.00000 0.00000 -0.00000
vn -1.00000 -0.00000 0.00000
vn -1.00000 0.00000 0.00000
vn -1.00000 0.00000 0.00000
vn -1.00000 0.00000 -0.00000
vn -1.00000 0.00000 0.00000
vn -1.00000 0.00000 -0.00000
vn -1.00000 -0.00000 0.00000
vn -1.00000 0.00000 -0.00000
vn -1.00000 0.00000 0.00000
vn -1.00000 0.00000 -0.00000
vn -1.00000 0.00000 0.00000
vn -1.00000 0.00000 -0.00000
usemtl Material
f 1/1/1 5/5/1 6/6/1

usemtl Material
f 6/6/2 2/2/2 1/1/2

usemtl Material
f 5/5/3 9/9/3 10/10/3

usemtl Material
f 10/10/4 6/6/4 5/5/4

usemtl Material
f 9/9/5 13/13/5 14/14/5

usemtl Material
f 14/14/6 10/10/6 9/9/6

usemtl Material
f 2/2/7 6/6/7 7/7/7

usemtl Material
f 7/7/8 3/3/8 2/2/8

usemtl Material
f 6/6/9 10/10/9 11/11/9

usemtl Material
f 11/11/10 7/7/10 6/6/10

usemtl Material
f 10/10/11 14/14/11 15/15/11

usemtl Material
f 15/15/12 11/11/12 10/10/12

usemtl Material
f 3/3/13 7/7/13 8/8/13

usemtl Material
f 8/8/14 4/4/14 3/3/14

usemtl Material
f 7/7/15 11/11/15 12/12/15

usemtl Material
f 12/12/16 8/8/16 7/7/16

usemtl Material
f 11/11/17 15/15/17 16/16/17

usemtl Material
f 16/16/18 12/12/18 11/11/18

usemtl Material
f 17/17/19 21/21/19 22/22/19

usemtl Material
f 22/22/20 18/18/20 17/17/20

usemtl Material
f 21/21/21 25/25/21 26/26/21

usemtl Material
f 26/26/22 22/22/22 21/21/22

usemtl Material
f 25/25/23 29/29/23 30/30/23

usemtl Material
f 30/30/24 26/26/24 25/25/24

usemtl Material
f 18/18/25 22/22/25 23/23/25

usemtl Material
f 23/23/26 19/19/26 18/18/26

usemtl Material
f 22/22/27 26/26/27 27/27/27

usemtl Material
f 27/27/28 23/23/28 22/22/28

usemtl Material
f 26/26/29 30/30/29 31/31/29

usemtl Material
f 31/31/30 27/27/30 26/26/30

usemtl Material
f 19/19/31 23/23/31 24/24/31

usemtl Material
f 24/24/32 20/20/32 19/19/32

usemtl Material
f 23/23/33 27/27/33 28/28/33

usemtl Material
f 28/28/34 24/24/34 23/23/34

usemtl Material
f 27/27/35 31/31/35 32/32/35

usemtl Material
f 32/32/36 28/28/36 27/27/36

usemtl Material
f 33/33/37 37/37/37 38/38/37

usemtl Material
f 38/38/38 34/34/38 33/33/38

usemtl Material
f 37/37/39 41/41/39 42/42/39

usemtl Material
f 42/42/40 38/38/40 37/37/40

usemtl Material
f 41/41/41 45/45/41 46/46/41

usemtl Material
f 46/46/42 42/42/42 41/41/42

usemtl Material
f 34/34/43 38/38/43 39/39/43

usemtl Material
f 39/39/44 35/35/44 34/34/44

usemtl Material
f 38/38/45 42/42/45 43/43/45

usemtl Material
f 43/43/46 39/39/46 38/38/46

usemtl Material
f 42/42/47 46/46/47 47/47/47

usemtl Material
f 47/47/48 43/43/48 42/42/48

usemtl Material
f 35/35/49 39/39/49 40/40/49

usemtl Material
f 40/40/50 36/36/50 35/35/50

usemtl Material
f 39/39/51 43/43/51 44/44/51

usemtl Material
f 44/44/52 40/40/52 39/39/52

usemtl Material
f 43/43/53 47/47/53 48/48/53

usemtl Material
f 48/48/54 44/44/54 43/43/54

usemtl Material
f 49/49/55 53/53/55 54/54/55

usemtl Material
f 54/54/56 50/50/56 49/49/56

usemtl Material
f 53/53/57 57/57/57 58/58/57

usemtl Material
f 58/58/58 54/54/58 53/53/58

usemtl Material
f 57/57/59 61/61/59 62/62/59

usemtl Material
f 62/62/60 58/58/60 57/57/60

usemtl Material
f 50/50/61 54/54/61 55/55/61

usemtl Material
f 55/55/62 51/51/62 50/50/62

usemtl Material
f 54/54/63 58/58/63 59/59/63

usemtl Material
f 59/59/64 55/55/64 54/54/64

usemtl Material
f 58/58/65 62/62/65 63/63/65

usemtl Material
f 63/63/66 59/59/66 58/58/66

usemtl Material
f 51/51/67 55/55/67 56/56/67

usemtl Material
f 56/56/68 52/52/68 51/51/68

usemtl Material
f 55/55/69 59/59/69 60/60/69

usemtl Material
f 60/60/70 56/56/70 55/55/70

usemtl Material
f 59/59/71 63/63/71 64/64/71

usemtl Material
f 64/64/72 60/60/72 59/59/72

usemtl Material
f 65/65/73 69/69/73 70/70/73

usemtl Material
f 70/70/74 66/66/74 65/65/74

usemtl Material
f 69/69/75 73/73/75 74/74/75

usemtl Material
f 74/74/76 70/70/76 69/69/76

usemtl Material
f 73/73/77 77/77/77 78/78/77

usemtl Material
f 78/78/78 74/74/78 73/73/78

usemtl Material
f 66/66/79 70/70/79 71/71/79

usemtl Material
f 71/71/80 67/67/80 66/66/80

usemtl Material
f 70/70/81 74/74/81 75/75/81

usemtl Material
f 75/75/82 71/71/82 70/70/82

usemtl Material
f 74/74/83 78/78/83 79/79/83

usemtl Material
f 79/79/84 75/75/84 74/74/84

usemtl Material
f 67/67/85 71/71/85 72/72/85

usemtl Material
f 72/72/86 68/68/86 67/67/86

usemtl Material
f 71/71/87 75/75/87 76/76/87

usemtl Material
f 76/76/88 72/72/88 71/71/88

usemtl Material
f 75/75/89 79/79/89 80/80/89

usemtl Material
f 80/80/90 76/76/90 75/75/90

usemtl Material
f 81/81/91 85/85/91 86/86/91

usemtl Material
f 86/86/92 82/82/92 81/81/92

usemtl Material
f 85/85/93 89/89/93 90/90/93

usemtl Material
f 90/90/94 86/86/94 85/85/94

usemtl Material
f 89/89/95 93/93/95 94/94/95

usemtl Material
f 94/94/96 90/90/96 89/89/96

usemtl Material
f 82/82/97 86/86/97 87/87/97

usemtl Material
f 87/87/98 83/83/98 82/82/98

usemtl Material
f 86/86/99 90/90/99 91/91/99

usemtl Material
f 91/91/100 87/87/100 86/86/100

usemtl Material
f 90/90/101 94/94/101 95/95/101

usemtl Material
f 95/95/102 91/91/102 90/90/102

usemtl Material
f 83/83/103 87/87/103 88/88/103

usemtl Material
f 88/88/104 84/84/104 83/83/104

usemtl Material
f 87/87/105 91/91/105 92/92/105

usemtl Material
f 92/92/106 88/88/106 87/87/106

usemtl Material
f 91/91/107 95/95/107 96/96/107

usemtl Material
f 96/96/108 92/92/108 91/91/108

usemtl Material
f 97/97/109 101/101/109 102/102/109

usemtl Material
f 102/102/110 98/98/110 97/97/110

usemtl Material
f 101/101/111 105/105/111 106/106/111

usemtl Material
f 106/106/112 102/102/112 101/101/112

usemtl Material
f 105/105/113 109/109/113 110/110/113

usemtl Material
f 110/110/114 106/106/114 105/105/114

usemtl Material
f 98/98/115 102/102/115 103/103/115

usemtl Material
f 103/103/116 99/99/116 98/98/116

usemtl Material
f 102/102/117 106/106/117 107/107/117

usemtl Material
f 107/107/118 103/103/118 102/102/118

usemtl Material
f 106/106/119 110/110/119 111/111/119

usemtl Material
f 111/111/120 107/107/120 106/106/120

usemtl Material
f 99/99/121 103/103/121 104/104/121

usemtl Material
f 104/104/122 100/100/122 99/99/122

usemtl Material
f 103/103/123 107/107/123 108/108/123

usemtl Material
f 108/108/124 104/104/124 103/103/124

usemtl Material
f 107/107/125 111/111/125 112/112/125

usemtl Material
f 112/112/126 108/108/126 107/107/126

# end of file
